# xmcd
#
# Track frame offsets: 
#        150
#        25146
#        42713
#        64099
#        82395
#        92528
#        117558
#        135925
#        153700
#        169362
#        190417
#
# Disc length: 3167 seconds
#
# Revision: 1
# Processed by: cddbd v1.5.1PL2 Copyright (c) Steve Scherf et al.
# Submitted via: ExactAudioCopy v0.95b4
#
DISCID=9e0c5d0b
DTITLE=John Hughes - Wild Ocean
DYEAR=2004
DGENRE=New Age
TTITLE0=Deo
TTITLE1=Dancing In The Wind
TTITLE2=The Opus Tree
TTITLE3=Horizon
TTITLE4=Beannacht Leat
TTITLE5=Casa Torres
TTITLE6=Come Away
TTITLE7=Prelude
TTITLE8=Lament
TTITLE9=The Phoenix
TTITLE10=Dreamtime
EXTD=YEAR: 2004
EXTT0=
EXTT1=
EXTT2=
EXTT3=
EXTT4=
EXTT5=
EXTT6=
EXTT7=
EXTT8=
EXTT9=
EXTT10=
PLAYORDER=
